[2026-07-09T07:26:49.304Z] Render debug session created
overlayTypes={"text":1,"circle":1,"underline":1}
outputPath=C:\Users\크로버-유진규\Videos\render_1783582009302.mp4
renderMode=video
container=MP4
audioContainer=MP3
resolution=FHD
aspectRatio=16:9
fps=30
region=8.71~0
videoClips=1
audioItems=1
overlayItems=3
overlaySummary=[{"id":"overlay_1783573639221_745421","type":"text","section":1,"start":1.61,"duration":2,"targetClipId":null},{"id":"overlay_1783581951823_904234","type":"circle","section":2,"start":4.34,"duration":1.58,"targetClipId":null},{"id":"overlay_1783581989710_416405","type":"underline","section":2,"start":6.17,"duration":1.46,"targetClipId":null}]

[2026-07-09T07:26:49.305Z] Preflight stage
preflight_project

[2026-07-09T07:26:49.307Z] Render project sanitize
target=1920x1080@30
warnings=none
fatalErrors=none

[2026-07-09T07:26:49.308Z] Preflight sample plan
1.7 text:start
2.6 text:middle
4.433 circle:start
6.267 underline:start
5.133 circle:middle
6.9 underline:middle
0 start
4.467 middle

[2026-07-09T07:26:49.308Z] Preflight stage
preflight_effects

[2026-07-09T07:26:49.643Z] FFmpeg capability cache
ffmpegPath=C:\vsm\bin\ffmpeg.exe
filterCount=503
encoderCount=212

[2026-07-09T07:26:49.644Z] Preflight stage
preflight_fonts

[2026-07-09T07:26:49.687Z] Preflight stage
preflight_drawtext

[2026-07-09T07:26:49.741Z] Preflight stage
preflight_frame

[2026-07-09T07:26:49.786Z] Preflight stage
actual_render_start {"warnings":0}

[2026-07-09T07:26:49.848Z] Canvas FX prerender
count=2
durationSec=8.733333333333333
fps=30
outputPath=C:\vsm\fx\fx_cb212b\fx_overlay.mov

[2026-07-09T07:26:55.124Z] Canvas FX frames ready
{"frameCount":262,"firstFramePath":"C:\\vsm\\fx\\fx_cb212b\\frames\\fx_000000.png","inputPattern":"C:\\vsm\\fx\\fx_cb212b\\frames\\fx_%06d.png"}

[2026-07-09T07:26:55.256Z] Attempt started: primary
[canvas-fx] ffmpeg -framerate 30 -i C:\vsm\fx\fx_cb212b\frames\fx_%06d.png -y -y -t 8.733 -c:v qtrle -pix_fmt argb C:\vsm\fx\fx_cb212b\fx_overlay.mov

[2026-07-09T07:26:56.279Z] Canvas FX source ready
C:\vsm\fx\fx_cb212b\fx_overlay.mov

[2026-07-09T07:26:56.282Z] Attempt prepared: primary
durationSec=8.733333333333333
hasRenderableAudio=true
inputCount=2
outputStaged=false
preparedOutputPath=C:\Users\크로버-유진규\Videos\render_1783582009302.mp4
finalOutputPath=C:\Users\크로버-유진규\Videos\render_1783582009302.mp4

[2026-07-09T07:26:56.979Z] Attempt started: primary
ffmpeg -i C:\vsm\rp\s_a60ea0\i0.mp4 -i C:\vsm\rp\s_a60ea0\i1.mov -y -filter_complex_script C:\vsm\fs\f_b98fd8.txt -y -map [vfxcanvas1_cfr_dur] -map [aout_dur] -t 8.733 -fps_mode cfr -c:v libx264 -c:a aac -movflags +faststart -preset ultrafast -crf 23 -filter_threads 8 -filter_complex_threads 8 -max_muxing_queue_size 4096 -threads 16 -pix_fmt yuv420p C:\Users\크로버-유진규\Videos\render_1783582009302.mp4

[2026-07-09T07:26:57.469Z] ffmpeg stderr: primary
ffmpeg version 6.1.1-essentials_build-www.gyan.dev Copyright (c) 2000-2023 the FFmpeg developers

[2026-07-09T07:26:57.469Z] ffmpeg stderr: primary
built with gcc 12.2.0 (Rev10, Built by MSYS2 project)

[2026-07-09T07:26:57.469Z] ffmpeg stderr: primary
configuration: --enable-gpl --enable-version3 --enable-static --pkg-config=pkgconf --disable-w32threads --disable-autodetect --enable-fontconfig --enable-iconv --enable-gnutls --enable-libxml2 --enable-gmp --enable-bzlib --enable-lzma --enable-zlib --enable-libsrt --enable-libssh --enable-libzmq --enable-avisynth --enable-sdl2 --enable-libwebp --enable-libx264 --enable-libx265 --enable-libxvid --enable-libaom --enable-libopenjpeg --enable-libvpx --enable-mediafoundation --enable-libass --enable-libfreetype --enable-libfribidi --enable-libharfbuzz --enable-libvidstab --enable-libvmaf --enable-libzimg --enable-amf --enable-cuda-llvm --enable-cuvid --enable-ffnvcodec --enable-nvdec --enable-nvenc --enable-dxva2 --enable-d3d11va --enable-libvpl --enable-libgme --enable-libopenmpt --enable-libopencore-amrwb --enable-libmp3lame --enable-libtheora --enable-libvo-amrwbenc --enable-libgsm --enable-libopencore-amrnb --enable-libopus --enable-libspeex --enable-libvorbis --enable-librubberband

[2026-07-09T07:26:57.469Z] ffmpeg stderr: primary
libavutil      58. 29.100 / 58. 29.100

[2026-07-09T07:26:57.469Z] ffmpeg stderr: primary
libavcodec     60. 31.102 / 60. 31.102

[2026-07-09T07:26:57.469Z] ffmpeg stderr: primary
libavformat    60. 16.100 / 60. 16.100

[2026-07-09T07:26:57.469Z] ffmpeg stderr: primary
libavdevice    60.  3.100 / 60.  3.100

[2026-07-09T07:26:57.469Z] ffmpeg stderr: primary
libavfilter     9. 12.100 /  9. 12.100

[2026-07-09T07:26:57.469Z] ffmpeg stderr: primary
libswscale      7.  5.100 /  7.  5.100

[2026-07-09T07:26:57.469Z] ffmpeg stderr: primary
libswresample   4. 12.100 /  4. 12.100

[2026-07-09T07:26:57.469Z] ffmpeg stderr: primary
libpostproc    57.  3.100 / 57.  3.100

[2026-07-09T07:26:57.484Z] ffmpeg stderr: primary
Input #0, mov,mp4,m4a,3gp,3g2,mj2, from 'C:\vsm\rp\s_a60ea0\i0.mp4':

[2026-07-09T07:26:57.484Z] ffmpeg stderr: primary
Metadata:

[2026-07-09T07:26:57.484Z] ffmpeg stderr: primary
major_brand     : isom

[2026-07-09T07:26:57.484Z] ffmpeg stderr: primary
minor_version   : 512

[2026-07-09T07:26:57.484Z] ffmpeg stderr: primary
compatible_brands: isomiso2mp41

[2026-07-09T07:26:57.484Z] ffmpeg stderr: primary
encoder         : Lavf58.45.100

[2026-07-09T07:26:57.484Z] ffmpeg stderr: primary
comment         : 1920x1080

[2026-07-09T07:26:57.484Z] ffmpeg stderr: primary
Duration: 00:00:08.96, start: 0.000000, bitrate: 3380 kb/s

[2026-07-09T07:26:57.484Z] ffmpeg stderr: primary
Stream #0:0[0x1](und): Video: hevc (Main) (hvc1 / 0x31637668), yuv420p(tv), 1920x1080, 3278 kb/s, 30 fps, 30 tbr, 90k tbn (default)

[2026-07-09T07:26:57.484Z] ffmpeg stderr: primary
Metadata:

[2026-07-09T07:26:57.484Z] ffmpeg stderr: primary
handler_name    : VideoHandler

[2026-07-09T07:26:57.484Z] ffmpeg stderr: primary
vendor_id       : [0][0][0][0]

[2026-07-09T07:26:57.484Z] ffmpeg stderr: primary
Stream #0:1[0x2](und): Audio: aac (LC) (mp4a / 0x6134706D), 44100 Hz, stereo, fltp, 102 kb/s (default)

[2026-07-09T07:26:57.484Z] ffmpeg stderr: primary
Metadata:

[2026-07-09T07:26:57.484Z] ffmpeg stderr: primary
handler_name    : SoundHandler

[2026-07-09T07:26:57.484Z] ffmpeg stderr: primary
vendor_id       : [0][0][0][0]

[2026-07-09T07:26:57.484Z] ffmpeg stderr: primary
Input #1, mov,mp4,m4a,3gp,3g2,mj2, from 'C:\vsm\rp\s_a60ea0\i1.mov':

[2026-07-09T07:26:57.484Z] ffmpeg stderr: primary
Metadata:

[2026-07-09T07:26:57.484Z] ffmpeg stderr: primary
major_brand     : qt

[2026-07-09T07:26:57.484Z] ffmpeg stderr: primary
minor_version   : 512

[2026-07-09T07:26:57.484Z] ffmpeg stderr: primary
compatible_brands: qt

[2026-07-09T07:26:57.484Z] ffmpeg stderr: primary
encoder         : Lavf60.16.100

[2026-07-09T07:26:57.484Z] ffmpeg stderr: primary
Duration: 00:00:08.73, start: 0.000000, bitrate: 3266 kb/s

[2026-07-09T07:26:57.485Z] ffmpeg stderr: primary
Stream #1:0[0x1]: Video: qtrle (rle  / 0x20656C72), argb(gbr/bt709/iec61966-2-1, progressive), 1920x1080, 3265 kb/s, 30 fps, 30 tbr, 15360 tbn (default)

[2026-07-09T07:26:57.485Z] ffmpeg stderr: primary
Metadata:

[2026-07-09T07:26:57.485Z] ffmpeg stderr: primary
handler_name    : VideoHandler

[2026-07-09T07:26:57.485Z] ffmpeg stderr: primary
vendor_id       : FFMP

[2026-07-09T07:26:57.485Z] ffmpeg stderr: primary
encoder         : Lavc60.31.102 qtrle

[2026-07-09T07:26:57.491Z] ffmpeg stderr: primary
Stream mapping:

[2026-07-09T07:26:57.491Z] ffmpeg stderr: primary
Stream #0:0 (hevc) -> trim:default

[2026-07-09T07:26:57.491Z] ffmpeg stderr: primary
Stream #0:1 (aac) -> atrim:default

[2026-07-09T07:26:57.491Z] ffmpeg stderr: primary
Stream #1:0 (qtrle) -> setpts:default

[2026-07-09T07:26:57.491Z] ffmpeg stderr: primary
setpts:default -> Stream #0:0 (libx264)

[2026-07-09T07:26:57.491Z] ffmpeg stderr: primary
asetpts:default -> Stream #0:1 (aac)

[2026-07-09T07:26:57.491Z] ffmpeg stderr: primary
Press [q] to stop, [?] for help

[2026-07-09T07:26:57.691Z] ffmpeg stderr: primary
[libx264 @ 000002b93891cfc0] using SAR=1/1

[2026-07-09T07:26:57.693Z] ffmpeg stderr: primary
[libx264 @ 000002b93891cfc0] using cpu capabilities: MMX2 SSE2Fast SSSE3 SSE4.2 AVX FMA3 BMI2 AVX2

[2026-07-09T07:26:57.695Z] ffmpeg stderr: primary
[libx264 @ 000002b93891cfc0] profile Constrained Baseline, level 4.0, 4:2:0, 8-bit

[2026-07-09T07:26:57.695Z] ffmpeg stderr: primary
[libx264 @ 000002b93891cfc0] 264 - core 164 r3172 c1c9931 - H.264/MPEG-4 AVC codec - Copyleft 2003-2023 - http://www.videolan.org/x264.html - options: cabac=0 ref=1 deblock=0:0:0 analyse=0:0 me=dia subme=0 psy=1 psy_rd=1.00:0.00 mixed_ref=0 me_range=16 chroma_me=1 trellis=0 8x8dct=0 cqm=0 deadzone=21,11 fast_pskip=1 chroma_qp_offset=0 threads=16 lookahead_threads=2 sliced_threads=0 nr=0 decimate=1 interlaced=0 bluray_compat=0 constrained_intra=0 bframes=0 weightp=0 keyint=250 keyint_min=25 scenecut=0 intra_refresh=0 rc=crf mbtree=0 crf=23.0 qcomp=0.60 qpmin=0 qpmax=69 qpstep=4 ip_ratio=1.40 aq=0

[2026-07-09T07:26:57.696Z] ffmpeg stderr: primary
Output #0, mp4, to 'C:\Users\크로버-유진규\Videos\render_1783582009302.mp4':

[2026-07-09T07:26:57.696Z] ffmpeg stderr: primary
Metadata:

[2026-07-09T07:26:57.696Z] ffmpeg stderr: primary
major_brand     : isom

[2026-07-09T07:26:57.696Z] ffmpeg stderr: primary
minor_version   : 512

[2026-07-09T07:26:57.696Z] ffmpeg stderr: primary
compatible_brands: isomiso2mp41

[2026-07-09T07:26:57.696Z] ffmpeg stderr: primary
comment         : 1920x1080

[2026-07-09T07:26:57.696Z] ffmpeg stderr: primary
encoder         : Lavf60.16.100

[2026-07-09T07:26:57.696Z] ffmpeg stderr: primary
Stream #0:0: Video: h264 (avc1 / 0x31637661), yuv420p(tv, progressive), 1920x1080 [SAR 1:1 DAR 16:9], q=2-31, 30 fps, 15360 tbn

[2026-07-09T07:26:57.696Z] ffmpeg stderr: primary
Metadata:

[2026-07-09T07:26:57.696Z] ffmpeg stderr: primary
encoder         : Lavc60.31.102 libx264

[2026-07-09T07:26:57.696Z] ffmpeg stderr: primary
Side data:

[2026-07-09T07:26:57.696Z] ffmpeg stderr: primary
cpb: bitrate max/min/avg: 0/0/0 buffer size: 0 vbv_delay: N/A

[2026-07-09T07:26:57.696Z] ffmpeg stderr: primary
Stream #0:1: Audio: aac (LC) (mp4a / 0x6134706D), 48000 Hz, stereo, fltp, 128 kb/s

[2026-07-09T07:26:57.696Z] ffmpeg stderr: primary
Metadata:

[2026-07-09T07:26:57.696Z] ffmpeg stderr: primary
encoder         : Lavc60.31.102 aac

[2026-07-09T07:26:57.699Z] ffmpeg stderr: primary
frame=    0 fps=0.0 q=0.0 size=       0kB time=00:00:00.08 bitrate=   4.5kbits/s speed=0.462x

[2026-07-09T07:26:58.176Z] ffmpeg stderr: primary
frame=    4 fps=0.0 q=23.0 size=     256kB time=00:00:00.78 bitrate=2657.4kbits/s speed=1.15x

[2026-07-09T07:26:58.684Z] ffmpeg stderr: primary
frame=   27 fps= 23 q=23.0 size=    1536kB time=00:00:01.55 bitrate=8080.0kbits/s speed=1.31x

[2026-07-09T07:26:59.184Z] ffmpeg stderr: primary
frame=   51 fps= 30 q=23.0 size=    3072kB time=00:00:02.34 bitrate=10724.2kbits/s speed=1.39x

[2026-07-09T07:26:59.687Z] ffmpeg stderr: primary
frame=   77 fps= 35 q=24.0 size=    4352kB time=00:00:03.20 bitrate=11141.2kbits/s speed=1.46x

[2026-07-09T07:27:00.191Z] ffmpeg stderr: primary
frame=  101 fps= 37 q=24.0 size=    6144kB time=00:00:04.01 bitrate=12549.5kbits/s speed=1.49x

[2026-07-09T07:27:00.689Z] ffmpeg stderr: primary
frame=  126 fps= 39 q=24.0 size=    7680kB time=00:00:04.84 bitrate=12991.8kbits/s speed=1.51x

[2026-07-09T07:27:01.203Z] ffmpeg stderr: primary
frame=  149 fps= 40 q=25.0 size=    9216kB time=00:00:05.61 bitrate=13456.1kbits/s speed=1.51x

[2026-07-09T07:27:01.704Z] ffmpeg stderr: primary
frame=  173 fps= 41 q=25.0 size=   11008kB time=00:00:06.40 bitrate=14090.3kbits/s speed=1.52x

[2026-07-09T07:27:02.205Z] ffmpeg stderr: primary
frame=  194 fps= 41 q=24.0 size=   12544kB time=00:00:07.10 bitrate=14465.2kbits/s speed=1.51x

[2026-07-09T07:27:02.708Z] ffmpeg stderr: primary
frame=  215 fps= 41 q=23.0 size=   13824kB time=00:00:07.82 bitrate=14464.4kbits/s speed= 1.5x

[2026-07-09T07:27:03.220Z] ffmpeg stderr: primary
frame=  231 fps= 40 q=22.0 size=   14592kB time=00:00:08.42 bitrate=14185.7kbits/s speed=1.47x

[2026-07-09T07:27:03.339Z] ffmpeg stderr: primary
[mp4 @ 000002b9382615c0] Starting second pass: moving the moov atom to the beginning of the file

[2026-07-09T07:27:03.356Z] ffmpeg stderr: primary
[out#0/mp4 @ 000002b9393c3f00] video:15745kB audio:137kB subtitle:0kB other streams:0kB global headers:0kB muxing overhead: 0.055290%

[2026-07-09T07:27:03.356Z] ffmpeg stderr: primary
frame=  262 fps= 45 q=-1.0 Lsize=   15891kB time=00:00:08.72 bitrate=14919.5kbits/s speed=1.49x

[2026-07-09T07:27:03.381Z] ffmpeg stderr: primary
[libx264 @ 000002b93891cfc0] frame I:2     Avg QP:20.00  size:176596

[2026-07-09T07:27:03.381Z] ffmpeg stderr: primary
[libx264 @ 000002b93891cfc0] frame P:260   Avg QP:23.59  size: 60649

[2026-07-09T07:27:03.381Z] ffmpeg stderr: primary
[libx264 @ 000002b93891cfc0] mb I  I16..4: 100.0%  0.0%  0.0%

[2026-07-09T07:27:03.381Z] ffmpeg stderr: primary
[libx264 @ 000002b93891cfc0] mb P  I16..4: 20.7%  0.0%  0.0%  P16..4: 46.2%  0.0%  0.0%  0.0%  0.0%    skip:33.2%

[2026-07-09T07:27:03.381Z] ffmpeg stderr: primary
[libx264 @ 000002b93891cfc0] coded y,uvDC,uvAC intra: 28.2% 15.0% 1.7% inter: 38.4% 9.2% 0.3%

[2026-07-09T07:27:03.381Z] ffmpeg stderr: primary
[libx264 @ 000002b93891cfc0] i16 v,h,dc,p: 34% 31% 23% 12%

[2026-07-09T07:27:03.381Z] ffmpeg stderr: primary
[libx264 @ 000002b93891cfc0] i8c dc,h,v,p: 59% 23% 16%  3%

[2026-07-09T07:27:03.381Z] ffmpeg stderr: primary
[libx264 @ 000002b93891cfc0] kb/s:14768.22

[2026-07-09T07:27:03.395Z] ffmpeg stderr: primary
[aac @ 000002b93891b7c0] Qavg: 1583.493

[2026-07-09T07:27:03.412Z] Attempt finalizing: primary
stage=encoder_finished
outputStaged=false

[2026-07-09T07:27:03.413Z] Attempt finalizing: primary
stage=finalizing_output
outputStaged=false

[2026-07-09T07:27:03.413Z] Attempt finalizing: primary
stage=cleaning_up_render
outputStaged=false

[2026-07-09T07:27:03.474Z] Final output validation starting
attempt=primary
outputPath=C:\Users\크로버-유진규\Videos\render_1783582009302.mp4

[2026-07-09T07:27:03.474Z] Final output validated
primary: C:\Users\크로버-유진규\Videos\render_1783582009302.mp4
size=16272200

[2026-07-09T07:27:03.474Z] Render completed
finalOutputPath=C:\Users\크로버-유진규\Videos\render_1783582009302.mp4

